<svg width="256" height="64" viewBox="0 0 256 64" fill="none" xmlns="http://www.w3.org/2000/svg">
  <rect x="0" y="0" width="56" height="56" rx="12" fill="#4682A9"/>
  <rect x="66" y="0" width="56" height="56" rx="12" fill="#E6A23C"/>
  <rect x="132" y="0" width="56" height="56" rx="12" fill="#6CB66F"/>
  <rect x="198" y="0" width="56" height="56" rx="12" fill="#D45A2A"/>
  <!-- Cable icon -->
  <g>
    <rect x="12" y="16" width="8" height="24" rx="4" fill="#fff"/>
    <rect x="24" y="20" width="8" height="16" rx="4" fill="#fff"/>
    <rect x="36" y="24" width="8" height="8" rx="4" fill="#fff"/>
  </g>
  <!-- Fiber icon -->
  <g>
    <path d="M80 40 Q90 20 110 40" stroke="#fff" stroke-width="3" fill="none"/>
    <path d="M85 40 Q95 25 105 40" stroke="#fff" stroke-width="2" fill="none"/>
    <circle cx="90" cy="40" r="2" fill="#fff"/>
    <circle cx="100" cy="40" r="2" fill="#fff"/>
  </g>
  <!-- Wireless icon -->
  <g>
    <circle cx="160" cy="40" r="4" fill="#fff"/>
    <path d="M160 32 Q155 36 160 40 Q165 36 160 32" stroke="#fff" stroke-width="2" fill="none"/>
    <path d="M160 24 Q150 36 160 48 Q170 36 160 24" stroke="#fff" stroke-width="2" fill="none"/>
  </g>
  <!-- Ethernet icon -->
  <g>
    <rect x="210" y="24" width="32" height="16" rx="4" fill="#fff"/>
    <rect x="218" y="32" width="8" height="8" rx="2" fill="#D45A2A"/>
    <rect x="230" y="32" width="8" height="8" rx="2" fill="#D45A2A"/>
  </g>
</svg>
